<svg width="19" height="12" viewBox="0 0 19 12" fill="none" xmlns="http://www.w3.org/2000/svg">
<path d="M17.5035 11.0834H15.5068C14.7516 11.0834 14.5241 10.4718 13.1705 9.1173C11.9875 7.97717 11.4879 7.83542 11.1886 7.83542C10.7747 7.83542 10.6619 7.94917 10.6619 8.5188V10.3143C10.6619 10.7999 10.5044 11.0843 9.23563 11.0843C8.00476 11.0016 6.81114 10.6277 5.7531 9.99331C4.69505 9.35894 3.80286 8.48228 3.15 7.43555C1.59984 5.50619 0.521244 3.24174 0 0.822298C0 0.523047 0.11375 0.251798 0.68425 0.251798H2.67925C3.192 0.251798 3.37663 0.480173 3.57788 1.0078C4.5465 3.85855 6.19938 6.3383 6.8705 6.3383C7.12775 6.3383 7.23975 6.22455 7.23975 5.58317V2.64667C7.15488 1.30705 6.4435 1.19417 6.4435 0.709423C6.4525 0.581533 6.511 0.46219 6.60658 0.376742C6.70216 0.291293 6.82728 0.246472 6.95538 0.251798H10.0914C10.5201 0.251798 10.6619 0.465297 10.6619 0.978047V4.9418C10.6619 5.36967 10.8456 5.51142 10.9751 5.51142C11.2324 5.51142 11.4301 5.36967 11.9018 4.89892C12.9127 3.66604 13.7386 2.29244 14.3535 0.821423C14.4164 0.644807 14.5354 0.493625 14.6923 0.390938C14.8492 0.28825 15.0353 0.239693 15.2224 0.252672H17.2183C17.8167 0.252672 17.9436 0.551923 17.8167 0.978923C17.0908 2.60504 16.1926 4.14861 15.1375 5.58317C14.9222 5.9113 14.8365 6.08192 15.1375 6.46692C15.3352 6.76617 16.0353 7.35067 16.5051 7.9063C17.1894 8.5888 17.7572 9.37805 18.1869 10.2425C18.3584 10.799 18.0731 11.0834 17.5035 11.0834Z" fill="#192031"/>
</svg>
